<?xml version="1.0" standalone="no"?>
<!DOCTYPE svg PUBLIC "-//W3C//DTD SVG 20010904//EN"
 "http://www.w3.org/TR/2001/REC-SVG-20010904/DTD/svg10.dtd">
<svg version="1.0" xmlns="http://www.w3.org/2000/svg"
 width="700.000000pt" height="700.000000pt" viewBox="0 0 700.000000 700.000000"
 preserveAspectRatio="xMidYMid meet">
<metadata>
Created by potrace 1.11, written by Peter Selinger 2001-2013
</metadata>
<g transform="translate(0.000000,700.000000) scale(0.100000,-0.100000)"
fill="#000000" stroke="none">
<path d="M5081 3799 c-191 -41 -326 -109 -453 -228 -181 -169 -261 -361 -261
-621 0 -271 74 -467 241 -642 133 -139 297 -237 651 -390 372 -161 461 -219
514 -338 30 -65 28 -179 -2 -242 -106 -219 -502 -276 -782 -112 -76 45 -182
148 -239 234 -24 36 -44 67 -46 68 -2 3 -510 -288 -532 -304 -8 -6 53 -109
107 -180 152 -202 354 -343 603 -423 136 -43 249 -62 418 -68 607 -24 1041
251 1135 716 26 129 17 374 -19 494 -97 325 -318 513 -896 762 -424 184 -503
252 -504 435 -1 63 4 84 28 133 53 109 171 165 326 154 140 -9 248 -76 335
-207 l46 -70 52 33 c29 19 142 91 252 162 110 70 202 129 204 131 10 9 -113
178 -179 245 -127 128 -251 199 -430 246 -82 22 -121 26 -285 29 -162 3 -204
1 -284 -17z"/>
<path d="M3148 2593 c-3 -1116 -4 -1202 -21 -1250 -25 -73 -74 -133 -137 -168
-52 -29 -61 -30 -175 -30 -108 0 -125 3 -176 26 -73 34 -145 108 -209 214 -28
47 -54 85 -57 85 -8 0 -505 -300 -521 -315 -10 -9 -2 -28 37 -94 214 -356 541
-523 991 -508 496 17 799 252 903 702 21 88 21 114 24 1313 l4 1222 -330 0
-331 0 -2 -1197z"/>
</g>
</svg>
