<?xml version="1.0" encoding="utf-8"?>
<!-- Generator: Adobe Illustrator 24.3.0, SVG Export Plug-In . SVG Version: 6.00 Build 0)  -->
<svg version="1.1" id="Calque_1" xmlns="http://www.w3.org/2000/svg" xmlns:xlink="http://www.w3.org/1999/xlink" x="0px" y="0px"
	 viewBox="0 0 985.2 985.2" style="enable-background:new 0 0 985.2 985.2;" xml:space="preserve">
<style type="text/css">
	.st0{stroke:#000000;stroke-width:0.5;}
	.st1{fill:#FFFFFF;stroke:#FFFFFF;stroke-width:0.5;}
	.st2{fill:#FEFEFE;stroke:#FEFEFE;stroke-width:0.5;}
	.st3{fill:#004D61;stroke:#004D61;stroke-width:0.5;}
</style>
<path class="st0" d="M662.9,286l-0.2-0.3l-0.2-0.3l-0.3-0.2l-0.3-0.2l-0.2-0.3l-0.2-0.3l-0.3-0.2l-0.3-0.2l-0.2-0.3l-0.2-0.3
	l-0.3-0.2l-0.3-0.2l-0.2-0.3l-0.2-0.3l-0.3-0.2l-0.3-0.2l-0.2-0.3l-0.2-0.3l-0.3-0.2l-0.3-0.2l-0.2-0.3l-0.2-0.3l-0.3-0.2l-0.3-0.2
	l-0.2-0.3h4l2,0.5l2,0.5l34,9.5c22.7,6.3,44,13.5,64,21.5s37.3,15.9,51.8,23.7c14.5,7.9,27.6,15.9,39.4,24c11.9,8.2,22.5,16.5,32,25
	c9.5,8.5,18.1,17.8,25.8,27.8c7.7,10,13.7,19.3,18,28c4.3,8.7,7.5,17.3,9.5,26s2.8,17.3,2.5,26c-0.3,8.7-1.8,17.7-4.5,27
	c-2.7,9.3-6.3,18.7-11,28c-4.7,9.3-10.5,18.7-17.5,28s-14.4,17.9-22.2,25.8c-7.9,7.8-18.3,16.4-31.3,25.7s-26.7,17.8-41,25.5
	c-14.3,7.7-30.3,14.8-48,21.5c-17.7,6.7-28,10.5-31,11.5s-5.2,1.7-6.5,2l-2,0.5l-1.5,0.5l-1.5,0.5l-1.5,0.5l-1.5,0.5l-1,0.3l-1,0.2
	v-2l1-0.2l1-0.3l0.2-0.3l0.3-0.2l0.3-0.2l0.2-0.3l0.2-0.3l0.3-0.2l0.3-0.2l0.2-0.3l0.2-0.3l0.3-0.2l0.3-0.2l0.2-0.3l0.2-0.3l0.3-0.2
	l0.3-0.2c0.1-0.2,0.6-0.7,1.4-1.6c0.9-0.8,5.5-6.3,14-16.4c8.5-10.2,15.5-20.5,21-31c5.5-10.5,9.3-20.5,11.3-29.8
	c2-9.3,2.7-17.3,2-24c-0.7-6.7-2.2-12.5-4.5-17.5c-2.3-5-5.3-9.1-8.8-12.3c-3.5-3.1-7.7-5.7-12.7-7.7s-11.5-3-19.5-3s-17,1.7-27,5
	c-10,3.3-20.2,8.2-30.5,14.5c-10.3,6.3-19.8,13.2-28.5,20.5l-13,11l-0.2,0.3l-0.3,0.2l-0.3,0.2l-0.2,0.3l-1.5,0.3l-1.5,0.2l-0.2-1
	c-0.2-0.7-2.6-4.3-7.3-11c-4.7-6.7-9.2-11.6-13.7-14.8c-4.5-3.1-9-4.9-13.3-5.2c-4.3-0.3-9.2,0.8-14.5,3.5c-5.3,2.7-10,6-14,10
	s-9.7,11.2-17,21.5c-7.3,10.3-17.7,27.9-31.2,52.8l-20.3,37.2l-0.5,1l-0.5,1l-0.5,1l-0.5,1l-0.5,1l-0.5,1l-0.5-1l-0.5-1l-0.5-1
	l-0.5-1l-0.3-0.2l-0.2-0.3l-0.2-0.3l-0.3-0.2l-0.5-1c-0.3-0.7-5.3-10.2-15-28.5c-9.7-18.3-18.5-34-26.5-47s-15.2-23.1-21.7-30.3
	c-6.5-7.1-12.1-12-16.8-14.7c-4.7-2.7-9-4.2-13-4.5c-4-0.3-7-0.2-9,0.5c-2,0.7-5.2,2.7-9.5,6c-4.3,3.3-8.7,8.4-13,15.3l-6.5,10.2
	l-1.5-0.2l-1.5-0.3l-0.2-0.3l-0.3-0.2l-0.3-0.2l-0.2-0.3l-13-11c-8.7-7.3-18.2-14.2-28.5-20.5c-10.3-6.3-19.7-11-28-14
	c-8.3-3-16-4.8-23-5.5c-7-0.7-13.5-0.3-19.5,1c-6,1.3-10.8,3.1-14.5,5.3c-3.7,2.1-5.5,3.5-5.5,4.2s-0.3,1-1,1
	c-0.7,0-2.4,2.5-5.2,7.5c-2.9,5-4.8,9.8-5.8,14.5s-1.2,11-0.5,19c0.7,8,2.7,16.7,6,26c3.3,9.3,8.2,18.8,14.5,28.5
	c6.3,9.7,12.7,18.1,19.2,25.3c6.5,7.1,9.9,10.8,10,11l0.3,0.2l0.3,0.2l0.2,0.3l0.2,0.3l0.3,0.2l0.3,0.2l0.2,0.3l0.2,0.3l0.3,0.2
	l0.3,0.2l0.2,0.3l0.2,0.3l0.3,0.2l0.3,0.2l0.2,0.3l1,0.3l1,0.2v2l-1-0.2l-1-0.3l-1.5-0.5l-1.5-0.5l-1.5-0.5l-1.5-0.5l-1.5-0.5
	c-1-0.3-4.8-1.5-11.5-3.5c-6.7-2-18.5-6.5-35.5-13.5s-32.2-14.2-45.5-21.5c-13.3-7.3-25.5-15-36.5-23s-20.4-15.9-28.3-23.7
	c-7.8-7.9-15.2-16.2-22-25c-6.8-8.8-12.8-18.2-18-28c-5.1-9.9-9-19.6-11.7-29.3c-2.7-9.7-4.2-19-4.5-28c-0.3-9,0.5-17.7,2.5-26
	s5.3-17.2,10-26.5c4.7-9.3,10.9-18.9,18.7-28.8c7.9-9.8,17-19.2,27.3-28.2c10.3-9,20.8-17.2,31.5-24.5c10.7-7.3,23.5-15,38.5-23
	s32.7-16,53-24c20.3-8,41.3-15,63-21l32.5-9l2-0.5l2-0.5h4l-0.2,0.3l-0.3,0.2l-0.3,0.2l-0.2,0.3l-0.2,0.3l-0.3,0.2l-0.3,0.2
	l-0.2,0.3l-0.2,0.3l-0.3,0.2l-0.3,0.2l-0.2,0.3l-0.2,0.3l-0.3,0.2l-0.3,0.2l-0.2,0.3l-0.2,0.3l-0.3,0.2l-0.3,0.2l-0.2,0.3l-0.2,0.3
	l-0.3,0.2l-0.3,0.2l-0.2,0.3L309.5,298c-6.9,8.1-12.1,15.9-15.8,23.2c-3.7,7.3-6.2,13.7-7.5,19c-1.3,5.3-1.8,10.8-1.5,16.5
	c0.3,5.7,1.7,11.2,4.2,16.7c2.5,5.5,5.3,10.1,8.3,13.8s7.8,7.7,14.5,12c6.7,4.3,14.5,8,23.5,11s19.5,4.5,31.5,4.5s20.3-1.2,25-3.5
	c4.7-2.3,8.9-5.1,12.8-8.2c3.8-3.2,8-8.3,12.7-15.3c4.7-7,8.7-14.8,12-23.5c3.3-8.7,5.8-25.7,7.5-51c1.7-25.3,3.1-40.9,4.2-46.8
	c1.2-5.8,4.4-3.8,9.6,6c5.1,9.9,8.3,16.6,9.4,20.3c1.2,3.7,5,4.9,11.3,3.7c6.3-1.1,14.2-1.5,23.5-1.2c9.3,0.3,16,0.9,20,1.8
	c4,0.8,7.6-2.8,10.8-10.8c3.1-8,6.4-14.8,9.7-20.5c3.3-5.7,6,0.8,8,19.5s3.3,34.3,4,47c0.7,12.7,2.7,23.3,6,32
	c3.3,8.7,7.1,16.1,11.3,22.2c4.1,6.2,8,11.1,11.7,14.8c3.7,3.7,8.2,6.8,13.5,9.5c5.3,2.7,14,4,26,4s22.5-1.5,31.5-4.5
	s16.3-6.3,22-10c5.7-3.7,10.6-7.7,14.7-12.2c4.2-4.5,7.5-9.6,9.8-15.3c2.3-5.7,3.5-12,3.5-19s-1.2-13.8-3.5-20.5
	c-2.3-6.7-5.8-13.7-10.5-21c-4.7-7.3-9.2-13.5-13.5-18.5C665.4,288.7,663.2,286.1,662.9,286z"/>
<path class="st1" d="M934.5,373.7l0.2,0.5l11.2,14c7.5,9.3,14,19,19.3,29c5.3,10,9.7,20.7,13,32c3.3,11.3,5.3,19.7,6,25
	c0.7,5.3,0.8,13.2,0.5,23.5c-0.3,10.3-1.8,20.8-4.5,31.5c-2.7,10.7-6.5,21.2-11.5,31.5s-7.7,15.8-8,16.5l-0.5,1l-0.3,0.2l-0.2,0.3
	l-0.2,0.3l-0.3,0.2l-0.5,1c-0.3,0.7-0.6,1-0.8,1h-0.2l-0.2,0.5c-0.2,0.3-0.4,0.5-0.6,0.5h-0.2l-0.2,1l-0.3,1h-0.5l-0.2,1
	c-0.2,0.7-4.3,5.8-12.3,15.5c-8,9.7-17.1,19.2-27.3,28.5l-15.2,14h-1l-0.2,0.5l-0.3,0.5h-0.5l-0.2,0.5l-0.3,0.5l-0.3,0.2l-0.2,0.3
	l-1,0.3l-1,0.2l-0.2,0.5c-0.2,0.3-0.4,0.5-0.6,0.5h-0.2l-0.2,0.5c-0.2,0.3-6,4.3-17.3,12c-11.3,7.7-24.2,15.4-38.7,23.3
	c-14.5,7.8-31.6,15.7-51.3,23.7c-19.7,8-41,15.3-64,22s-47.2,12.3-72.5,17c-25.2,4.6-50.5,8.1-76,10.5c-25.3,2.3-52.8,3.5-82.5,3.5
	c-29.7,0-54.7-0.8-75-2.5c-20.3-1.7-42.7-4.5-67-8.5c-24.3-4-48-9-71-15s-44-12.5-63-19.5s-37.5-15-55.5-24s-33.5-17.7-46.5-26
	s-24.3-16.6-34-24.8l-14.5-12.2l-0.5-0.2l-0.5-0.3v-0.5l-0.5-0.2l-0.5-0.3l-0.2-0.3l-0.3-0.2l-0.3-0.2l-0.2-0.3l-0.2-0.3l-0.3-0.2
	l-0.3-0.2l-0.2-0.3l-0.2-0.3l-0.3-0.2l-0.3-0.2l-0.2-0.3l-0.2-0.3c-0.2-0.1-1.3-1.2-3.3-3.2s-7.5-8.5-16.5-19.5s-16.7-22.8-23-35.5
	c-6.3-12.7-10.8-24.3-13.5-35c-2.7-10.7-4-23-4-37s1.3-26.2,4-36.5c2.7-10.3,6.4-20.5,11.3-30.5l7.2-15l0.2-0.5
	c0.2-0.3,0.4-0.5,0.6-0.5h0.2l7.8-11.5c5.1-7.7,12.6-16.8,22.4-27.3c9.9-10.5,20.8-20.4,32.8-29.7s25.8-18.7,41.5-28
	c15.7-9.3,32-17.8,49-25.5s34.7-14.7,53-21c18.3-6.3,39.3-12.3,63-18c23.7-5.7,48.3-10.3,74-14c25.7-3.7,50.7-6.2,75-7.5
	c24.3-1.3,51.3-1.5,81-0.5c29.7,1,57.3,3.2,83,6.5c25.7,3.3,50.3,7.7,74,13c23.7,5.3,47,11.8,70,19.5s43.8,15.8,62.5,24.5
	c18.7,8.7,35.2,17.5,49.5,26.5c14.3,9,25.2,16.4,32.7,22.2c7.5,5.9,15.1,12.3,22.8,19.3c7.7,7,12.3,11.3,14,13
	C933.4,372.3,934.3,373.3,934.5,373.7z"/>
<path class="st2" d="M922.2,389l0.5,0.2l0.2,1l0.3,1l0.3,0.2l0.2,0.3l9.2,12.3c6.2,8.1,11.6,17,16.3,26.7c4.7,9.7,8.2,19,10.5,28
	c2.3,9,3.5,20.3,3.5,34c0,13.7-1.3,25.5-4,35.5c-2.7,10-5.2,17.5-7.5,22.5c-2.3,5-3.6,7.8-3.8,8.5l-0.2,1l-0.5,0.2
	c-0.3,0.2-0.5,0.4-0.5,0.6v0.2l-0.2,0.5c-0.2,0.3-1.6,2.7-4.3,7c-2.7,4.3-7.7,11.2-15,20.5c-7.3,9.3-15,17.7-23,25l-12,11l-0.3,0.2
	l-0.2,0.3l-0.2,0.3l-0.3,0.2l-0.3,0.2l-0.2,0.3v0.5l-0.5,0.2l-0.5,0.3l-1,0.5c-0.7,0.3-3.3,2.3-8,6c-4.7,3.7-14.1,9.9-28.2,18.8
	c-14.2,8.8-30.4,17.5-48.6,26c-18.1,8.5-37.5,16.2-58.2,23.2c-20.7,7-42.8,13.2-66.5,18.5c-23.7,5.3-48.2,9.7-73.5,13
	c-25.3,3.3-53,5.5-83,6.5s-56.8,0.8-80.5-0.5c-23.7-1.3-47.5-3.7-71.5-7s-48-7.8-72-13.5s-46.8-12.3-68.5-20
	c-21.7-7.7-41-15.7-58-24s-32.2-16.8-45.5-25.5c-13.3-8.7-25.3-17.4-36-26.3l-16-13.2l-0.2-0.5c-0.2-0.3-1.7-2.1-4.6-5.3
	c-2.8-3.1-7.7-9.2-14.7-18.2S42.2,567.8,37,558c-5.1-9.9-9-19.8-11.7-29.8c-2.7-10-4.2-20.3-4.5-31c-0.3-10.7,0.2-19.8,1.5-27.5
	c1.3-7.7,4.1-17,8.3-28l6.2-16.5l0.5-0.2c0.3-0.2,0.5-0.4,0.5-0.6v-0.2l8.5-12.8c5.7-8.5,12.3-17,20-25.7c7.7-8.7,17.2-17.7,28.5-27
	c11.3-9.3,23.8-18.2,37.5-26.5c13.7-8.3,28.8-16.5,45.5-24.5c16.7-8,35-15.5,55-22.5s42-13.3,66-19s48-10.2,72-13.5s47.8-5.7,71.5-7
	c23.7-1.3,50.5-1.5,80.5-0.5s57.7,3.2,83,6.5c25.3,3.3,49.8,7.7,73.5,13c23.7,5.3,45.8,11.5,66.5,18.5c20.7,7,39.7,14.5,57,22.5
	c17.3,8,32.9,16.2,46.8,24.7c13.8,8.5,25.6,16.7,35.4,24.6c9.9,7.8,18.5,15.4,25.8,22.7C918.1,385,921.9,388.8,922.2,389z"/>
<path class="st3" d="M662.9,286l-0.2-0.3l-0.2-0.3l-0.3-0.2l-0.3-0.2l-0.2-0.3l-0.2-0.3l-0.3-0.2l-0.3-0.2l-0.2-0.3l-0.2-0.3
	l-0.3-0.2l-0.3-0.2l-0.2-0.3l-0.2-0.3l-0.3-0.2l-0.3-0.2l-0.2-0.3l-0.2-0.3l-0.3-0.2l-0.3-0.2l-0.2-0.3l-0.2-0.3l-0.3-0.2l-0.3-0.2
	l-0.2-0.3h4l2,0.5l2,0.5l34,9.5c22.7,6.3,44,13.5,64,21.5s37.3,15.9,51.8,23.7c14.5,7.9,27.6,15.9,39.4,24c11.9,8.2,22.5,16.5,32,25
	c9.5,8.5,18.1,17.8,25.8,27.8c7.7,10,13.7,19.3,18,28c4.3,8.7,7.5,17.3,9.5,26s2.8,17.3,2.5,26c-0.3,8.7-1.8,17.7-4.5,27
	c-2.7,9.3-6.3,18.7-11,28c-4.7,9.3-10.5,18.7-17.5,28s-14.4,17.9-22.2,25.8c-7.9,7.8-18.3,16.4-31.3,25.7s-26.7,17.8-41,25.5
	c-14.3,7.7-30.3,14.8-48,21.5c-17.7,6.7-28,10.5-31,11.5s-5.2,1.7-6.5,2l-2,0.5l-1.5,0.5l-1.5,0.5l-1.5,0.5l-1.5,0.5l-1,0.3l-1,0.2
	v-2l1-0.2l1-0.3l0.2-0.3l0.3-0.2l0.3-0.2l0.2-0.3l0.2-0.3l0.3-0.2l0.3-0.2l0.2-0.3l0.2-0.3l0.3-0.2l0.3-0.2l0.2-0.3l0.2-0.3l0.3-0.2
	l0.3-0.2c0.1-0.2,0.6-0.7,1.4-1.6c0.9-0.8,5.5-6.3,14-16.4c8.5-10.2,15.5-20.5,21-31c5.5-10.5,9.3-20.5,11.3-29.8
	c2-9.3,2.7-17.3,2-24c-0.7-6.7-2.2-12.5-4.5-17.5c-2.3-5-5.3-9.1-8.8-12.3c-3.5-3.1-7.7-5.7-12.7-7.7s-11.5-3-19.5-3s-17,1.7-27,5
	c-10,3.3-20.2,8.2-30.5,14.5c-10.3,6.3-19.8,13.2-28.5,20.5l-13,11l-0.2,0.3l-0.3,0.2l-0.3,0.2l-0.2,0.3l-1.5,0.3l-1.5,0.2l-0.2-1
	c-0.2-0.7-2.6-4.3-7.3-11c-4.7-6.7-9.2-11.6-13.7-14.8c-4.5-3.1-9-4.9-13.3-5.2c-4.3-0.3-9.2,0.8-14.5,3.5c-5.3,2.7-10,6-14,10
	s-9.7,11.2-17,21.5c-7.3,10.3-17.7,27.9-31.2,52.8l-20.3,37.2l-0.5,1l-0.5,1l-0.5,1l-0.5,1l-0.5,1l-0.5,1l-0.5-1l-0.5-1l-0.5-1
	l-0.5-1l-0.3-0.2l-0.2-0.3l-0.2-0.3l-0.3-0.2l-0.5-1c-0.3-0.7-5.3-10.2-15-28.5c-9.7-18.3-18.5-34-26.5-47s-15.2-23.1-21.7-30.3
	c-6.5-7.1-12.1-12-16.8-14.7c-4.7-2.7-9-4.2-13-4.5c-4-0.3-7-0.2-9,0.5c-2,0.7-5.2,2.7-9.5,6c-4.3,3.3-8.7,8.4-13,15.3l-6.5,10.2
	l-1.5-0.2l-1.5-0.3l-0.2-0.3l-0.3-0.2l-0.3-0.2l-0.2-0.3l-13-11c-8.7-7.3-18.2-14.2-28.5-20.5c-10.3-6.3-19.7-11-28-14
	c-8.3-3-16-4.8-23-5.5c-7-0.7-13.5-0.3-19.5,1c-6,1.3-10.8,3.1-14.5,5.3c-3.7,2.1-5.5,3.5-5.5,4.2s-0.3,1-1,1
	c-0.7,0-2.4,2.5-5.2,7.5c-2.9,5-4.8,9.8-5.8,14.5s-1.2,11-0.5,19c0.7,8,2.7,16.7,6,26c3.3,9.3,8.2,18.8,14.5,28.5
	c6.3,9.7,12.7,18.1,19.2,25.3c6.5,7.1,9.9,10.8,10,11l0.3,0.2l0.3,0.2l0.2,0.3l0.2,0.3l0.3,0.2l0.3,0.2l0.2,0.3l0.2,0.3l0.3,0.2
	l0.3,0.2l0.2,0.3l0.2,0.3l0.3,0.2l0.3,0.2l0.2,0.3l1,0.3l1,0.2v2l-1-0.2l-1-0.3l-1.5-0.5l-1.5-0.5l-1.5-0.5l-1.5-0.5l-1.5-0.5
	c-1-0.3-4.8-1.5-11.5-3.5c-6.7-2-18.5-6.5-35.5-13.5s-32.2-14.2-45.5-21.5c-13.3-7.3-25.5-15-36.5-23s-20.4-15.9-28.3-23.7
	c-7.8-7.9-15.2-16.2-22-25c-6.8-8.8-12.8-18.2-18-28c-5.1-9.9-9-19.6-11.7-29.3c-2.7-9.7-4.2-19-4.5-28c-0.3-9,0.5-17.7,2.5-26
	s5.3-17.2,10-26.5c4.7-9.3,10.9-18.9,18.7-28.8c7.9-9.8,17-19.2,27.3-28.2c10.3-9,20.8-17.2,31.5-24.5c10.7-7.3,23.5-15,38.5-23
	s32.7-16,53-24c20.3-8,41.3-15,63-21l32.5-9l2-0.5l2-0.5h4l-0.2,0.3l-0.3,0.2l-0.3,0.2l-0.2,0.3l-0.2,0.3l-0.3,0.2l-0.3,0.2
	l-0.2,0.3l-0.2,0.3l-0.3,0.2l-0.3,0.2l-0.2,0.3l-0.2,0.3l-0.3,0.2l-0.3,0.2l-0.2,0.3l-0.2,0.3l-0.3,0.2l-0.3,0.2l-0.2,0.3l-0.2,0.3
	l-0.3,0.2l-0.3,0.2l-0.2,0.3L309.5,298c-6.9,8.1-12.1,15.9-15.8,23.2c-3.7,7.3-6.2,13.7-7.5,19c-1.3,5.3-1.8,10.8-1.5,16.5
	c0.3,5.7,1.7,11.2,4.2,16.7c2.5,5.5,5.3,10.1,8.3,13.8s7.8,7.7,14.5,12c6.7,4.3,14.5,8,23.5,11s19.5,4.5,31.5,4.5s20.3-1.2,25-3.5
	c4.7-2.3,8.9-5.1,12.8-8.2c3.8-3.2,8-8.3,12.7-15.3c4.7-7,8.7-14.8,12-23.5c3.3-8.7,5.8-25.7,7.5-51c1.7-25.3,3.1-40.9,4.2-46.8
	c1.2-5.8,4.4-3.8,9.6,6c5.1,9.9,8.3,16.6,9.4,20.3c1.2,3.7,5,4.9,11.3,3.7c6.3-1.1,14.2-1.5,23.5-1.2c9.3,0.3,16,0.9,20,1.8
	c4,0.8,7.6-2.8,10.8-10.8c3.1-8,6.4-14.8,9.7-20.5c3.3-5.7,6,0.8,8,19.5s3.3,34.3,4,47c0.7,12.7,2.7,23.3,6,32
	c3.3,8.7,7.1,16.1,11.3,22.2c4.1,6.2,8,11.1,11.7,14.8c3.7,3.7,8.2,6.8,13.5,9.5c5.3,2.7,14,4,26,4s22.5-1.5,31.5-4.5
	s16.3-6.3,22-10c5.7-3.7,10.6-7.7,14.7-12.2c4.2-4.5,7.5-9.6,9.8-15.3c2.3-5.7,3.5-12,3.5-19s-1.2-13.8-3.5-20.5
	c-2.3-6.7-5.8-13.7-10.5-21c-4.7-7.3-9.2-13.5-13.5-18.5C665.4,288.7,663.2,286.1,662.9,286z"/>
<path class="st3" d="M934.5,373.7l0.2,0.5v1.8c0,1.1,0.1,1.8,0.2,2l0.3,0.2v3l-0.3-0.2c-0.1-0.2-0.5-0.4-1.2-0.6
	c-0.7-0.1-1.1,0.1-1.2,0.8c-0.2,0.7-1.2,1.2-3,1.5l-2.8,0.5l0.5,1.2c0.3,0.9,0.8,1.1,1.3,0.6c0.5-0.5,0.8-0.3,1,0.7l0.2,1.5h-2
	l-0.2,1l-0.3,1l-0.3-0.2l-0.2-0.3l-0.2-0.3l-0.3-0.2l-0.5-1c-0.3-0.7-0.7-0.7-1.2-0.2l-0.8,0.7l-0.2,0.3l-0.3,0.2l-0.3,0.2l-0.2,0.3
	v0.5l-0.5-0.2c-0.3-0.2-4.2-4-11.5-11.3c-7.3-7.3-15.9-14.9-25.8-22.7c-9.8-7.9-21.6-16.1-35.4-24.6c-13.9-8.5-29.5-16.7-46.8-24.7
	c-17.3-8-36.3-15.5-57-22.5c-20.7-7-42.8-13.2-66.5-18.5c-23.7-5.3-48.2-9.7-73.5-13c-25.3-3.3-53-5.5-83-6.5s-56.8-0.8-80.5,0.5
	c-23.7,1.3-47.5,3.7-71.5,7s-48,7.8-72,13.5s-46,12-66,19s-38.3,14.5-55,22.5c-16.7,8-31.8,16.2-45.5,24.5
	c-13.7,8.3-26.2,17.2-37.5,26.5c-11.3,9.3-20.8,18.3-28.5,27c-7.7,8.7-14.3,17.2-20,25.7l-8.5,12.8h-0.2c-0.2,0-0.4,0.2-0.6,0.5
	l-0.2,0.5l-2,0.2l-2,0.3l-1,0.3l-1,0.2v-2l1.5-0.2c1-0.2,0.3-0.5-2-1c-2.3-0.5-3.6-1.8-3.7-3.8c-0.2-2-0.9-4-2-6l-1.8-3l0.5-0.2
	c0.3-0.2,0.5-0.4,0.5-0.6v-0.2l7.8-11.5c5.1-7.7,12.6-16.8,22.4-27.3c9.9-10.5,20.8-20.4,32.8-29.7s25.8-18.7,41.5-28
	c15.7-9.3,32-17.8,49-25.5s34.7-14.7,53-21c18.3-6.3,39.3-12.3,63-18c23.7-5.7,48.3-10.3,74-14c25.7-3.7,50.7-6.2,75-7.5
	c24.3-1.3,51.3-1.5,81-0.5c29.7,1,57.3,3.2,83,6.5c25.7,3.3,50.3,7.7,74,13c23.7,5.3,47,11.8,70,19.5s43.8,15.8,62.5,24.5
	c18.7,8.7,35.2,17.5,49.5,26.5c14.3,9,25.2,16.4,32.7,22.2c7.5,5.9,15.1,12.3,22.8,19.3c7.7,7,12.3,11.3,14,13
	C933.4,372.3,934.3,373.3,934.5,373.7z"/>
<path class="st3" d="M73.6,611.7l1.2-1.5l16,13.2c10.7,8.9,22.7,17.6,36,26.3c13.3,8.7,28.5,17.2,45.5,25.5s36.3,16.3,58,24
	c21.7,7.7,44.5,14.3,68.5,20s48,10.2,72,13.5s47.8,5.7,71.5,7c23.7,1.3,50.5,1.5,80.5,0.5s57.7-3.2,83-6.5
	c25.3-3.3,49.8-7.7,73.5-13c23.7-5.3,45.8-11.5,66.5-18.5c20.7-7,40.1-14.7,58.2-23.2c18.2-8.5,34.4-17.2,48.6-26
	c14.1-8.9,23.5-15.1,28.2-18.8c4.7-3.7,7.3-5.7,8-6l1-0.5l0.5-0.3l0.5-0.2l1,0.2l1,0.3l0.2,0.3l0.3,0.2l0.3,0.2l0.2,0.3l1.5,0.3
	l1.5,0.2v3h2l0.5,4.2c0.3,2.9,0.6,4.4,0.7,4.6c0.2,0.1,0.4,0.5,0.6,1.2l0.2,1v0.2c0,0.2-0.3,0.4-1,0.6l-1,0.2l-0.2-0.5
	c-0.2-0.3-0.7-0.7-1.6-1c-0.8-0.3-1.1-0.2-1,0.5l0.3,1l-0.3,0.8c-0.1,0.5-0.2,0.8-0.2,1v0.2l-0.5,0.2c-0.3,0.2-0.5,0.4-0.5,0.6v0.2
	l-0.2,0.5c-0.2,0.3-6,4.3-17.3,12c-11.3,7.7-24.2,15.4-38.7,23.3c-14.5,7.8-31.6,15.7-51.3,23.7c-19.7,8-41,15.3-64,22
	s-47.2,12.3-72.5,17c-25.2,4.6-50.5,8.1-76,10.5c-25.3,2.3-52.8,3.5-82.5,3.5c-29.7,0-54.7-0.8-75-2.5c-20.3-1.7-42.7-4.5-67-8.5
	c-24.3-4-48-9-71-15s-44-12.5-63-19.5s-37.5-15-55.5-24s-33.5-17.7-46.5-26s-24.3-16.6-34-24.8l-14.5-12.2l-0.5-0.2l-0.5-0.3V626
	c0-0.2,0.3-0.5,0.8-1l0.7-0.8l-0.3-0.2l-0.2-0.3l0.2-0.3l0.3-0.2l0.5-2c0.3-1.3,0.6-2.5,0.8-3.5l0.2-1.5l2-0.2
	c1.3-0.2,2.1-0.7,2.2-1.6C72.1,613.6,72.7,612.7,73.6,611.7L73.6,611.7z M934.8,376v-1.8l11.2,14c7.5,9.3,14,19,19.3,29
	c5.3,10,9.7,20.7,13,32c3.3,11.3,5.3,19.7,6,25c0.7,5.3,0.8,13.2,0.5,23.5c-0.3,10.3-1.8,20.8-4.5,31.5
	c-2.7,10.7-6.5,21.2-11.5,31.5s-7.7,15.8-8,16.5l-0.5,1l-0.3,0.2l-0.2,0.3l-0.2,0.3l-0.3,0.2l-0.5,1.5l-0.5,1.5l-0.3,0.2l-0.2,0.3
	l-0.2,0.3l-0.3,0.2l-0.3,0.2l-0.2,0.3l-0.2,0.3l-0.3,0.2h-0.5l0.2-2l0.3-2v-1l-0.3-0.2l-0.2-0.3l-0.2-0.3l-0.3-0.2l-0.3-0.2
	l-0.2-0.3l0.2-0.3l0.3-0.2v-0.5c0-0.3-0.2-2-0.7-5c-0.5-3-1.5-4.5-2.8-4.5c-1.3,0-1.9-0.3-1.8-1c0.2-0.7,0.4-1.8,0.6-3.5
	c0.1-1.7-0.5-2.3-1.8-2l-2,0.5l0.2-1c0.2-0.7,1.6-3.7,4.3-9c2.7-5.3,5.3-13,8-23c2.7-10,4-21.8,4-35.5c0-13.7-1.2-25-3.5-34
	c-2.3-9-5.8-18.3-10.5-28c-4.7-9.7-10.1-18.6-16.3-26.7l-9.2-12.3l-0.2-0.3l-0.3-0.2l-0.3-1l-0.2-1v-0.5l0.2-0.3l0.3-0.2l0.3-0.2
	l0.2-0.3l0.8-0.7c0.5-0.5,0.9-0.5,1.2,0.2l0.5,1l0.3,0.2l0.2,0.3l0.2,0.3l0.3,0.2v-1.5c0-1-0.1-2-0.3-3l-0.2-1.5l2.2-0.5
	c1.5-0.3,2.2-0.8,2-1.5c-0.1-0.7,0.5-0.9,1.8-0.8c1.3,0.2,2.1,0.4,2.2,0.6l0.3,0.2v-3l-0.3-0.2C934.8,377.8,934.8,377.1,934.8,376z
	 M928.9,385c-0.1-0.2-0.1-0.4,0-0.6c0.2-0.1,0.3,0,0.3,0.3S929.2,385.1,928.9,385z"/>
<path class="st3" d="M23.5,409.2h0.2l1,2.8c0.7,1.8,1.2,3.9,1.5,6.4c0.3,2.5,1.7,4.1,4,4.6c2.3,0.5,3,0.8,2,1l-1.5,0.2v2l1-0.2
	l1-0.3l1.5-0.5c1-0.3,1.8-0.6,2.5-0.8l1-0.2l-6.2,15c-4.2,10-7.1,19.5-8.8,28.5c-1.7,9-2.3,18.8-2,29.5c0.3,10.7,1.8,21,4.5,31
	c2.7,10,6.6,19.9,11.7,29.8c5.2,9.8,11.3,19.2,18.3,28.2s11.9,15.1,14.7,18.2c2.9,3.2,4.4,5,4.6,5.3l0.2,0.5l-1.2,1.5
	c-0.9,1-1.4,1.9-1.6,2.7c-0.1,0.9-0.9,1.4-2.2,1.6l-2,0.2l-0.2,1.5c-0.2,1-0.5,2.2-0.8,3.5l-0.5,2l-0.3,0.2l-0.2,0.3l0.2,0.3
	l0.3,0.2v3h-0.5l-0.5-0.2l-0.5-0.3v-0.5l-0.5-0.2l-0.5-0.3l-0.2-0.3l-0.3-0.2l-0.3-0.2l-0.2-0.3l-0.2-0.3l-0.3-0.2l-0.3-0.2
	l-0.2-0.3l-0.2-0.3l-0.3-0.2l-0.3-0.2l-0.2-0.3l-0.2-0.3c-0.2-0.1-1.3-1.2-3.3-3.2s-7.5-8.5-16.5-19.5s-16.7-22.8-23-35.5
	c-6.3-12.7-10.8-24.3-13.5-35c-2.7-10.7-4-23-4-37s1.3-26.2,4-36.5c2.7-10.3,6.4-20.5,11.3-30.5l7.2-15l0.2-0.5
	C23.2,409.3,23.4,409.2,23.5,409.2z"/>
<path class="st3" d="M947.5,560.7l0.2-0.5h1.5c1,0,1.4,0.8,1.3,2.5c-0.2,1.7-0.4,2.8-0.6,3.5c-0.1,0.7,0.5,1,1.8,1
	c1.3,0,2.3,1.5,2.8,4.5c0.5,3,0.7,4.7,0.7,5v0.5l-0.3,0.2l-0.2,0.3l0.2,0.3l0.3,0.2l0.3,0.2l0.2,0.3l1,0.3c0.7,0.1,1,0.5,1,1.2v1
	l-0.5,0.2c-0.3,0.2-0.5,0.4-0.5,0.6v0.2h-0.2c-0.2,0-0.4,0.3-0.6,1l-0.2,1l-0.2,1c-0.2,0.7-4.3,5.8-12.3,15.5
	c-8,9.7-17.1,19.2-27.3,28.5l-15.2,14l-0.2-1c-0.2-0.7-0.4-0.7-0.6,0l-0.2,1l-0.2,0.5l-0.3,0.5h-0.5l-0.2,0.5l-0.3,0.5l-0.3,0.2
	l-0.2,0.3l-0.2,0.3l-0.3,0.2l-0.3,0.2l-0.2,0.3l-1,0.3l-1,0.2v-2l1-0.2l1-0.3l-0.2-0.3l-0.3-0.2l-0.3-1c-0.1-0.7,0.1-1,0.8-1
	c0.7,0,1.1-0.3,1.2-1c0.2-0.7,0.4-2.3,0.6-5l0.2-4l-1-0.2c-0.7-0.2-1.7-0.4-3-0.6c-1.3-0.1-1.9-0.7-1.8-1.7l0.3-1.5l-0.3-0.2
	l-0.2-0.3l-1-0.3l-1-0.2v-0.5l0.2-0.3l0.3-0.2l0.3-0.2l0.2-0.3l0.2-0.3l0.3-0.2l12-11c8-7.3,15.7-15.7,23-25
	c7.3-9.3,12.3-16.2,15-20.5c2.7-4.3,4.1-6.7,4.3-7l0.2-0.5h0.2C947.1,561.2,947.3,561,947.5,560.7L947.5,560.7z"/>
</svg>
